<?xml version="1.0" standalone="no"?><!DOCTYPE svg PUBLIC "-//W3C//DTD SVG 1.1//EN" "http://www.w3.org/Graphics/SVG/1.1/DTD/svg11.dtd"><svg t="1702867688848" class="icon" viewBox="0 0 1024 1024" version="1.1" xmlns="http://www.w3.org/2000/svg" p-id="4225" xmlns:xlink="http://www.w3.org/1999/xlink" width="200" height="200"><path d="M512 64a448 448 0 1 0 448 448 448 448 0 0 0-448-448z m5.76 192a145.92 145.92 0 0 1 140.16 151.04 155.52 155.52 0 0 1-51.2 117.12A142.08 142.08 0 0 1 419.2 512a157.44 157.44 0 0 1-41.6-104.96A145.92 145.92 0 0 1 517.76 256z m199.68 479.36c-47.36 49.28-331.52 28.16-331.52 28.16-95.36 0-97.28-55.04-97.28-55.04-9.6-49.92 80.64-128 113.92-150.4a176 176 0 0 0 222.08 0L704 629.12c64 74.88 13.44 106.24 13.44 106.24z" p-id="4226" fill="#1296db"></path></svg>